<?xml version="1.0" standalone="no"?><!DOCTYPE svg PUBLIC "-//W3C//DTD SVG 1.1//EN" "http://www.w3.org/Graphics/SVG/1.1/DTD/svg11.dtd"><svg t="1648733616301" class="icon" viewBox="0 0 1024 1024" version="1.1" xmlns="http://www.w3.org/2000/svg" p-id="3261" xmlns:xlink="http://www.w3.org/1999/xlink" width="200" height="200"><defs><style type="text/css"></style></defs><path d="M507.3408 228.352L365.3632 117.504c-26.8288-20.9408-65.024-18.8928-89.3952 4.864-29.3888 28.5696-27.0848 76.4416 4.9152 102.0416l7.7312 6.1952M515.9424 228.352l141.9776-110.8992c26.8288-20.9408 65.024-18.8928 89.3952 4.864 29.3888 28.5696 27.0848 76.4416-4.9152 102.0416l-7.7312 6.1952" fill="#FFC50B" p-id="3262"></path><path d="M767.1296 160.5632c-2.2016-13.9776-8.7552-27.4944-19.8144-38.2464-24.4224-23.7056-62.5664-25.8048-89.3952-4.864L541.4912 208.384l60.7232 20.7872 4.6592 0.0512c6.7584-6.3488 43.4176-40.8064 75.1104-68.4032 35.072-30.5152 75.776-2.2528 75.776-2.2528l9.3696 1.9968zM365.3632 117.4528c-26.8288-20.9408-65.024-18.8928-89.3952 4.864-24.32 23.6544-26.88 60.5184-8.8576 87.04l49.0496 10.2912s-29.952-41.2672-3.3792-62.7712 75.2128-1.1264 75.2128-1.1264l47.1552 16.1792-69.7856-54.4768z" fill="#FFD16C" p-id="3263"></path><path d="M842.1376 457.984H177.4592c-40.9088 0-74.0864-33.1776-74.0864-74.0864V306.7904c0-40.9088 33.1776-74.0864 74.0864-74.0864h664.7296c40.9088 0 74.0864 33.1776 74.0864 74.0864v77.1072c-0.0512 40.9088-33.2288 74.0864-74.1376 74.0864z" fill="#FF8383" p-id="3264"></path><path d="M103.3728 306.7904v77.1072c0 27.136 14.6432 50.7904 36.4544 63.6928 41.4208 1.792 87.0912 3.2768 123.1872 3.2768-22.6304-11.3152-29.952-36.1984-29.952-61.0816V290.816c0-33.3824 51.456-51.456 51.456-51.456l-2.2016-6.7072H177.4592c-40.9088 0.0512-74.0864 33.2288-74.0864 74.1376z" fill="#FF9797" p-id="3265"></path><path d="M914.944 306.7904v77.1072c0 27.136-14.6432 50.7904-36.4544 63.6928-41.4208 1.792-87.0912 3.2768-123.1872 3.2768 22.6304-11.3152 29.952-36.1984 29.952-61.0816V290.816c0-33.3824-51.456-51.456-51.456-51.456l2.2016-6.7072h104.8576c40.9088 0.0512 74.0864 33.2288 74.0864 74.1376z" fill="#FC6565" p-id="3266"></path><path d="M844.9536 457.984H174.6432c-5.632 0-11.0592-0.7168-16.3328-1.9456v301.056c0 89.0368 72.1408 161.1776 161.1776 161.1776h380.5696c89.0368 0 161.1776-72.1408 161.1776-161.1776v-301.056c-5.2224 1.2288-10.6496 1.9456-16.2816 1.9456z" fill="#FF9797" p-id="3267"></path><path d="M274.3296 515.3792v251.0336c0 58.7776 14.6944 144.7424 126.6688 144.7424-127.7952 0-235.2128-27.136-235.2128-131.1744V507.4432l108.544 7.936z" fill="#FFB8B8" p-id="3268"></path><path d="M170.2912 547.0208h583.4752v219.392c0 39.5776-15.8208 137.9328-148.1216 146.9952 104.0384 0 255.6416 13.0048 255.6416-156.3136v-306.176H158.3104l11.9808 96.1024z" fill="#FF7878" p-id="3269"></path><path d="M632.9344 583.2192c-32.0512-32.0512-83.9168-33.4336-117.6576-3.8912-1.792 1.536-4.0448 2.4576-6.4 2.4576-2.304 0-4.5056-0.8704-6.2464-2.3552-34.9696-29.4912-87.3984-27.648-118.7328 4.9152-32.3072 33.536-31.7952 87.6544 1.1776 120.6272l85.2992 85.248c10.6496 10.6496 24.6272 15.9744 38.656 15.9744 13.9776 0 28.0064-5.3248 38.656-15.9744l85.248-85.248c33.5872-33.536 33.5872-88.1664 0-121.7536z" fill="#FFC50B" p-id="3270"></path><path d="M481.28 560.0256s-105.6256-9.0624-118.3232 69.3248c-4.5568 28.16 31.1808 95.9488 84.736 126.5152-10.2912-68.4032 6.9632-162.2016 63.232-180.3776-21.504-15.4624-29.6448-15.4624-29.6448-15.4624z" fill="#FFE8C0" p-id="3271"></path><path d="M486.4 576.8192s-121.6512 38.6048-49.92 164.352c35.84 58.112 72.5504 65.1264 72.5504 65.1264s-59.8016-182.2208 43.2128-226.2528c-41.7792-8.704-65.8432-3.2256-65.8432-3.2256z" fill="#FFD16C" p-id="3272"></path><path d="M842.1376 207.104h-55.8592c4.096-9.8816 6.656-20.48 7.168-31.4368 1.28-26.8288-9.0112-52.992-28.2624-71.7312-33.4336-32.4608-86.272-35.328-122.9824-6.656l-130.56 101.9392L381.1328 97.28c-36.7104-28.672-89.6-25.8048-122.9824 6.656a93.6704 93.6704 0 0 0-28.2624 71.7312c0.512 10.9568 3.072 21.5552 7.168 31.4368H177.4592c-54.9376 0-99.6864 44.6976-99.6864 99.6864v77.1072c0 38.8608 22.4256 72.4992 54.9376 88.9344v284.2112c0 103.0144 83.8144 186.7776 186.7776 186.7776h380.5696c103.0144 0 186.7776-83.8144 186.7776-186.7776V472.832c32.512-16.4352 54.9376-50.0736 54.9376-88.9344V306.7904c0.0512-54.9888-44.6464-99.6864-99.6352-99.6864z m-168.448-69.4272c16.64-13.0048 40.6528-11.7248 55.808 3.0208a42.09664 42.09664 0 0 1 12.8512 32.512 41.98912 41.98912 0 0 1-15.9232 31.1296l-3.4304 2.7648h-138.24l88.9344-69.4272zM296.9088 204.3392a41.98912 41.98912 0 0 1-15.9232-31.1296c-0.6144-12.3392 3.9424-23.9104 12.8512-32.512 15.1552-14.7456 39.168-16.0256 55.808-3.0208l88.9344 69.4784h-138.24l-3.4304-2.816z m538.7776 552.7552c0 74.752-60.8256 135.5776-135.5776 135.5776H319.488c-74.752 0-135.5776-60.8256-135.5776-135.5776V483.584h651.776v273.5104z m54.9376-373.1968c0 26.7264-21.76 48.4864-48.4864 48.4864H177.4592c-26.7264 0-48.4864-21.76-48.4864-48.4864V306.7904c0-26.7264 21.76-48.4864 48.4864-48.4864h664.7296c26.7264 0 48.4864 21.76 48.4864 48.4864v77.1072z" fill="#434A54" p-id="3273"></path><path d="M452.2496 808.3968c15.1552 15.1552 35.2768 23.4496 56.7296 23.4496s41.6256-8.3456 56.7296-23.5008l85.248-85.248c21.0944-21.0944 32.6656-49.152 32.6656-79.0016s-11.6224-57.9072-32.6656-79.0016c-38.3488-38.3488-98.56-43.1104-142.2848-13.056-44.9536-29.9008-105.6256-24.5248-143.2576 14.592-41.9328 43.52-41.2672 113.7152 1.4848 156.4672l85.3504 85.2992z m-49.92-206.2336c11.5712-11.9808 27.1872-18.0736 43.0592-18.0736 14.336 0 28.8768 4.9664 40.7552 14.9504a35.24096 35.24096 0 0 0 22.7328 8.3968 35.328 35.328 0 0 0 23.2448-8.8064c23.9104-20.9408 60.2112-19.7632 82.688 2.7136 11.4176 11.4176 17.7152 26.624 17.7152 42.8032 0 16.1792-6.2976 31.3856-17.7152 42.8032l-85.248 85.248c-5.4784 5.4784-12.7488 8.4992-20.5312 8.4992s-15.104-3.0208-20.5312-8.4992l-85.2992-85.248c-23.1936-23.1936-23.552-61.2352-0.8704-84.7872z" fill="#434A54" p-id="3274"></path></svg>