<?xml version="1.0" standalone="no"?><!DOCTYPE svg PUBLIC "-//W3C//DTD SVG 1.1//EN" "http://www.w3.org/Graphics/SVG/1.1/DTD/svg11.dtd"><svg t="1648733487514" class="icon" viewBox="0 0 1024 1024" version="1.1" xmlns="http://www.w3.org/2000/svg" p-id="3115" xmlns:xlink="http://www.w3.org/1999/xlink" width="200" height="200"><defs><style type="text/css"></style></defs><path d="M794.368 885.9648l-558.7456 0.7168c-68.6592 0.1024-124.3648-56.0128-124.4672-125.3376l-0.5632-432.384c-0.0512-38.5536 18.1248-74.8544 48.896-97.6384l109.3632-80.9472a82.176 82.176 0 0 1 48.8448-16.128l396.8512-0.512c18.0224 0 35.5328 5.8368 49.8688 16.6912l105.6256 79.9232c30.1056 22.784 47.872 58.5728 47.9232 96.5632l0.5632 433.408c0.0512 69.3248-55.5008 125.5936-124.16 125.6448z" fill="#FFD16C" p-id="3116"></path><path d="M912.9472 292.4544a120.79616 120.79616 0 0 0-42.9056-62.1056L764.416 150.4256c-14.336-10.8544-31.8464-16.7424-49.8688-16.6912l-396.8 0.512c-17.6128 0-34.7648 5.6832-48.9472 16.1792l-109.2608 80.896a120.6016 120.6016 0 0 0-43.6736 62.1568l797.0816-1.024z" fill="#FFD16C" p-id="3117"></path><path d="M414.208 146.3808l-54.6304 0.3584-134.5536 133.7344-0.7168 0.9216a49.55136 49.55136 0 0 0-10.5472 30.6176V875.52c0 8.448 6.8096 15.2576 15.2576 15.2576h117.0432V300.5952L414.208 146.3808z" fill="#FFE8C0" p-id="3118"></path><path d="M901.2736 295.4752l1.0752-25.4976L746.2912 143.36l-109.6704-13.568 157.1328 178.5344-1.1264 0.1536v433.1008c0 56.5248-9.0624 131.1744-98.3552 131.1744 135.68 0 221.6448 12.4416 221.6448-146.9952V293.7856l-14.6432 1.6896z" fill="#FFC50B" p-id="3119"></path><path d="M943.5648 352.512c0-11.7248-1.024-23.3472-2.8672-34.7136 0-0.1024 0-0.1536-0.0512-0.256-0.1024-0.512-0.2048-1.024-0.256-1.536-0.4096-2.4064-0.8704-4.7616-1.3312-7.1168-0.3072-1.5872-0.6656-3.1744-1.024-4.8128-0.2048-0.9728-0.4608-1.9968-0.7168-2.9696-6.7584-27.8528-20.6848-61.7472-49.6128-89.2928-0.7168-0.6656-1.4336-1.28-2.2016-1.8944l-105.6256-79.9232c-4.6592-3.5328-9.6256-6.656-14.7456-9.3696-0.5632-0.3072-1.1776-0.5632-1.792-0.8704-1.9968-1.024-4.0448-1.9968-6.0928-2.9184a108.35456 108.35456 0 0 0-42.5472-8.7552h-0.1536l-396.8512 0.512c-8.6016 0-17.152 1.0752-25.4464 3.1232-11.1104 2.7136-21.76 7.2192-31.488 13.2096-2.4064 1.4848-4.8128 3.1232-7.1168 4.8128l-26.7776 19.8656-82.5344 61.1328c-0.1024 0.0512-0.2048 0.1536-0.3072 0.256-2.4064 1.792-4.7104 3.7376-6.912 5.7344-0.6144 0.5632-1.1776 1.1776-1.7408 1.7408-1.6896 1.6384-3.3792 3.2768-4.9152 5.0176-0.6656 0.768-1.3312 1.5872-1.9968 2.3552-1.3824 1.6384-2.7648 3.2768-4.096 5.0176-0.768 1.024-1.536 2.0992-2.304 3.1744-1.0752 1.4848-2.1504 2.9696-3.1232 4.5056-0.9216 1.3824-1.8432 2.816-2.7136 4.3008-0.6656 1.1264-1.3824 2.2528-1.9968 3.3792-1.1264 1.8944-2.2016 3.84-3.2256 5.7856-0.2048 0.3584-0.3584 0.7168-0.5632 1.0752-9.6768 18.5856-16.4352 39.424-20.5312 59.0848-0.4608 2.2016-0.8704 4.1984-1.1776 5.7856v0.0512c-2.4576 13.3632-3.6352 25.9584-3.6352 36.5056l0.5632 406.784c0.1024 83.2512 67.328 150.9376 149.9136 150.9376h0.2048l558.7456-0.7168c40.0896-0.0512 77.7216-15.872 106.0352-44.4928 28.2112-28.5696 43.7248-66.5088 43.6736-106.8032l-0.6656-407.7056zM174.7968 251.904L284.16 170.9568c4.8128-3.584 10.24-6.3488 15.9232-8.2432l0.6144-0.1536c5.5296-1.7408 11.3152-2.7136 17.1008-2.7136l396.8512-0.512h0.0512c4.608 0 9.216 0.5632 13.6704 1.6896 7.424 1.8432 14.4896 5.1712 20.6336 9.8304l52.224 39.5264 52.224 39.5264c2.048 1.9968 3.9936 4.096 5.8368 6.1952 0.6144 0.6656 1.1776 1.3824 1.7408 2.048 1.2288 1.4848 2.4064 2.9184 3.5328 4.4544l1.792 2.4064c1.0752 1.536 2.0992 3.0208 3.072 4.608 0.4608 0.7168 0.9728 1.4336 1.3824 2.1504 1.3312 2.2016 2.6624 4.4032 3.84 6.656 0.256 0.512 0.512 0.9728 0.768 1.4848 0.9728 1.8432 1.8432 3.6864 2.7136 5.5296 0.3584 0.768 0.6656 1.4848 0.9728 2.2016 0.768 1.6896 1.4336 3.3792 2.0992 5.12 0.256 0.6144 0.512 1.2288 0.7168 1.8432 0.2048 0.512 0.3584 1.024 0.512 1.536l-735.232 0.9728c7.3216-20.736 17.408-37.6832 27.5968-45.2096z m689.2032 579.2256c-18.5856 18.8416-43.3664 29.2352-69.632 29.2864l-558.7456 0.7168H235.52c-54.3744 0-98.6112-44.7488-98.7136-99.7888l-0.5632-406.784c0-2.048 0.0512-4.1472 0.1536-6.2464l755.8144-0.9728c0.0512 1.9968 0.1024 3.84 0.1024 5.2736l0.5632 407.808c0.0512 26.6752-10.1888 51.8144-28.8768 70.7072z" fill="#434A54" p-id="3120"></path><path d="M805.632 719.4112h-189.2352c-14.1312 0-25.6 11.4688-25.6 25.6s11.4688 25.6 25.6 25.6h189.2352c14.1312 0 25.6-11.4688 25.6-25.6s-11.4688-25.6-25.6-25.6z" fill="#434A54" p-id="3121"></path></svg>